<?xml version="1.0" encoding="UTF-8" standalone="no"?>
<!-- Created with Inkscape (http://www.inkscape.org/) -->

<svg
   xmlns:dc="http://purl.org/dc/elements/1.1/"
   xmlns:cc="http://creativecommons.org/ns#"
   xmlns:rdf="http://www.w3.org/1999/02/22-rdf-syntax-ns#"
   xmlns:svg="http://www.w3.org/2000/svg"
   xmlns="http://www.w3.org/2000/svg"
   xmlns:xlink="http://www.w3.org/1999/xlink"
   xmlns:sodipodi="http://sodipodi.sourceforge.net/DTD/sodipodi-0.dtd"
   xmlns:inkscape="http://www.inkscape.org/namespaces/inkscape"
   width="256"
   height="256"
   id="svg2"
   version="1.1"
   inkscape:version="0.48.2 r9819"
   sodipodi:docname="icon.svg">
  <defs
     id="defs4">
    <linearGradient
       y2="445.16745"
       x2="726.91016"
       y1="388.45044"
       x1="726.91016"
       gradientTransform="matrix(0.2400412,0,0,1.0091871,-59.607089,50.7501)"
       gradientUnits="userSpaceOnUse"
       id="linearGradient2980"
       xlink:href="#linearGradient3164"
       inkscape:collect="always" />
    <linearGradient
       y2="445.16745"
       x2="726.91016"
       y1="388.45044"
       x1="726.91016"
       gradientTransform="matrix(1.2809327,0,0,1.0091871,-753.11664,-9.2499)"
       gradientUnits="userSpaceOnUse"
       id="linearGradient2978"
       xlink:href="#linearGradient3164"
       inkscape:collect="always" />
    <radialGradient
       r="7.1330748"
       fy="469.36499"
       fx="506.24673"
       cy="471.40497"
       cx="508.29752"
       gradientTransform="matrix(1,0,0,3.9254336,22.460937,-1381.7662)"
       gradientUnits="userSpaceOnUse"
       id="radialGradient2976"
       xlink:href="#linearGradient4850"
       inkscape:collect="always" />
    <linearGradient
       y2="502.34891"
       x2="480.07483"
       y1="443.00705"
       x1="480.07483"
       gradientTransform="translate(22.460937,0.5)"
       gradientUnits="userSpaceOnUse"
       id="linearGradient2974"
       xlink:href="#linearGradient4800"
       inkscape:collect="always" />
    <radialGradient
       r="7.1330748"
       fy="469.36499"
       fx="506.24673"
       cy="471.40497"
       cx="508.29752"
       gradientTransform="matrix(1,0,0,3.9254336,0,-1382.2662)"
       gradientUnits="userSpaceOnUse"
       id="radialGradient2972"
       xlink:href="#linearGradient4850"
       inkscape:collect="always" />
    <linearGradient
       y2="502.34891"
       x2="480.07483"
       y1="443.00705"
       x1="480.07483"
       gradientUnits="userSpaceOnUse"
       id="linearGradient2970"
       xlink:href="#linearGradient4800"
       inkscape:collect="always" />
    <radialGradient
       r="7.1330748"
       fy="469.36499"
       fx="506.24673"
       cy="471.40497"
       cx="508.29752"
       gradientTransform="matrix(1,0,0,3.9254336,0,-1382.2662)"
       gradientUnits="userSpaceOnUse"
       id="radialGradient2968"
       xlink:href="#linearGradient4850"
       inkscape:collect="always" />
    <linearGradient
       y2="502.34891"
       x2="480.07483"
       y1="443.00705"
       x1="480.07483"
       gradientUnits="userSpaceOnUse"
       id="linearGradient2966"
       xlink:href="#linearGradient4800"
       inkscape:collect="always" />
    <radialGradient
       r="7.1330748"
       fy="469.36499"
       fx="506.24673"
       cy="471.40497"
       cx="508.29752"
       gradientTransform="matrix(1,0,0,3.9254336,0,-1382.2662)"
       gradientUnits="userSpaceOnUse"
       id="radialGradient2964"
       xlink:href="#linearGradient4850"
       inkscape:collect="always" />
    <linearGradient
       y2="502.34891"
       x2="480.07483"
       y1="443.00705"
       x1="480.07483"
       gradientUnits="userSpaceOnUse"
       id="linearGradient2962"
       xlink:href="#linearGradient4800"
       inkscape:collect="always" />
    <radialGradient
       r="7.1330748"
       fy="469.36499"
       fx="506.24673"
       cy="471.40497"
       cx="508.29752"
       gradientTransform="matrix(1,0,0,3.9254336,0,-1382.2662)"
       gradientUnits="userSpaceOnUse"
       id="radialGradient2960"
       xlink:href="#linearGradient4850"
       inkscape:collect="always" />
    <linearGradient
       y2="502.34891"
       x2="480.07483"
       y1="443.00705"
       x1="480.07483"
       gradientUnits="userSpaceOnUse"
       id="linearGradient2958"
       xlink:href="#linearGradient4800"
       inkscape:collect="always" />
    <radialGradient
       r="7.1330748"
       fy="469.36499"
       fx="506.24673"
       cy="471.40497"
       cx="508.29752"
       gradientTransform="matrix(1,0,0,3.9254336,0,-1382.2662)"
       gradientUnits="userSpaceOnUse"
       id="radialGradient2956"
       xlink:href="#linearGradient4850"
       inkscape:collect="always" />
    <linearGradient
       y2="502.34891"
       x2="480.07483"
       y1="443.00705"
       x1="480.07483"
       gradientUnits="userSpaceOnUse"
       id="linearGradient2954"
       xlink:href="#linearGradient4800"
       inkscape:collect="always" />
    <radialGradient
       r="7.1330748"
       fy="469.36499"
       fx="506.24673"
       cy="471.40497"
       cx="508.29752"
       gradientTransform="matrix(1,0,0,3.9254336,0,-1382.2662)"
       gradientUnits="userSpaceOnUse"
       id="radialGradient2952"
       xlink:href="#linearGradient4850"
       inkscape:collect="always" />
    <linearGradient
       y2="502.34891"
       x2="480.07483"
       y1="443.00705"
       x1="480.07483"
       gradientUnits="userSpaceOnUse"
       id="linearGradient2950"
       xlink:href="#linearGradient4800"
       inkscape:collect="always" />
    <radialGradient
       r="7.1330748"
       fy="469.36499"
       fx="506.24673"
       cy="471.40497"
       cx="508.29752"
       gradientTransform="matrix(1,0,0,3.9254336,0,-1382.2662)"
       gradientUnits="userSpaceOnUse"
       id="radialGradient2948"
       xlink:href="#linearGradient4850"
       inkscape:collect="always" />
    <linearGradient
       y2="502.34891"
       x2="480.07483"
       y1="443.00705"
       x1="480.07483"
       gradientUnits="userSpaceOnUse"
       id="linearGradient2946"
       xlink:href="#linearGradient4800"
       inkscape:collect="always" />
    <linearGradient
       y2="445.16745"
       x2="726.91016"
       y1="388.45044"
       x1="726.91016"
       gradientTransform="matrix(0.3012701,0,0,1.0091871,209.77505,50.7501)"
       gradientUnits="userSpaceOnUse"
       id="linearGradient2944"
       xlink:href="#linearGradient3164"
       inkscape:collect="always" />
    <linearGradient
       y2="445.16745"
       x2="726.91016"
       y1="388.45044"
       x1="726.91016"
       gradientTransform="matrix(0.1680072,0,0,1.0091871,508.68297,50.7501)"
       gradientUnits="userSpaceOnUse"
       id="linearGradient2942"
       xlink:href="#linearGradient3164"
       inkscape:collect="always" />
    <linearGradient
       y2="445.16745"
       x2="726.91016"
       y1="388.45044"
       x1="726.91016"
       gradientTransform="matrix(0.2400412,0,0,1.0091871,-59.607089,50.7501)"
       gradientUnits="userSpaceOnUse"
       id="linearGradient25734"
       xlink:href="#linearGradient3164"
       inkscape:collect="always" />
    <linearGradient
       y2="445.16745"
       x2="726.91016"
       y1="388.45044"
       x1="726.91016"
       gradientTransform="matrix(1.2809327,0,0,1.0091871,-753.11664,-9.2499)"
       gradientUnits="userSpaceOnUse"
       id="linearGradient25732"
       xlink:href="#linearGradient3164"
       inkscape:collect="always" />
    <radialGradient
       r="7.1330748"
       fy="469.36499"
       fx="506.24673"
       cy="471.40497"
       cx="508.29752"
       gradientTransform="matrix(1,0,0,3.9254336,22.460937,-1381.7662)"
       gradientUnits="userSpaceOnUse"
       id="radialGradient25730"
       xlink:href="#linearGradient4850"
       inkscape:collect="always" />
    <linearGradient
       y2="502.34891"
       x2="480.07483"
       y1="443.00705"
       x1="480.07483"
       gradientTransform="translate(22.460937,0.5)"
       gradientUnits="userSpaceOnUse"
       id="linearGradient25728"
       xlink:href="#linearGradient4800"
       inkscape:collect="always" />
    <radialGradient
       r="7.1330748"
       fy="469.36499"
       fx="506.24673"
       cy="471.40497"
       cx="508.29752"
       gradientTransform="matrix(1,0,0,3.9254336,0,-1382.2662)"
       gradientUnits="userSpaceOnUse"
       id="radialGradient25726"
       xlink:href="#linearGradient4850"
       inkscape:collect="always" />
    <linearGradient
       y2="502.34891"
       x2="480.07483"
       y1="443.00705"
       x1="480.07483"
       gradientUnits="userSpaceOnUse"
       id="linearGradient25724"
       xlink:href="#linearGradient4800"
       inkscape:collect="always" />
    <radialGradient
       r="7.1330748"
       fy="469.36499"
       fx="506.24673"
       cy="471.40497"
       cx="508.29752"
       gradientTransform="matrix(1,0,0,3.9254336,0,-1382.2662)"
       gradientUnits="userSpaceOnUse"
       id="radialGradient25722"
       xlink:href="#linearGradient4850"
       inkscape:collect="always" />
    <linearGradient
       y2="502.34891"
       x2="480.07483"
       y1="443.00705"
       x1="480.07483"
       gradientUnits="userSpaceOnUse"
       id="linearGradient25720"
       xlink:href="#linearGradient4800"
       inkscape:collect="always" />
    <radialGradient
       r="7.1330748"
       fy="469.36499"
       fx="506.24673"
       cy="471.40497"
       cx="508.29752"
       gradientTransform="matrix(1,0,0,3.9254336,0,-1382.2662)"
       gradientUnits="userSpaceOnUse"
       id="radialGradient25718"
       xlink:href="#linearGradient4850"
       inkscape:collect="always" />
    <linearGradient
       y2="502.34891"
       x2="480.07483"
       y1="443.00705"
       x1="480.07483"
       gradientUnits="userSpaceOnUse"
       id="linearGradient25716"
       xlink:href="#linearGradient4800"
       inkscape:collect="always" />
    <radialGradient
       r="7.1330748"
       fy="469.36499"
       fx="506.24673"
       cy="471.40497"
       cx="508.29752"
       gradientTransform="matrix(1,0,0,3.9254336,0,-1382.2662)"
       gradientUnits="userSpaceOnUse"
       id="radialGradient25714"
       xlink:href="#linearGradient4850"
       inkscape:collect="always" />
    <linearGradient
       y2="502.34891"
       x2="480.07483"
       y1="443.00705"
       x1="480.07483"
       gradientUnits="userSpaceOnUse"
       id="linearGradient25712"
       xlink:href="#linearGradient4800"
       inkscape:collect="always" />
    <radialGradient
       r="7.1330748"
       fy="469.36499"
       fx="506.24673"
       cy="471.40497"
       cx="508.29752"
       gradientTransform="matrix(1,0,0,3.9254336,0,-1382.2662)"
       gradientUnits="userSpaceOnUse"
       id="radialGradient25710"
       xlink:href="#linearGradient4850"
       inkscape:collect="always" />
    <linearGradient
       y2="502.34891"
       x2="480.07483"
       y1="443.00705"
       x1="480.07483"
       gradientUnits="userSpaceOnUse"
       id="linearGradient25708"
       xlink:href="#linearGradient4800"
       inkscape:collect="always" />
    <radialGradient
       r="7.1330748"
       fy="469.36499"
       fx="506.24673"
       cy="471.40497"
       cx="508.29752"
       gradientTransform="matrix(1,0,0,3.9254336,0,-1382.2662)"
       gradientUnits="userSpaceOnUse"
       id="radialGradient25706"
       xlink:href="#linearGradient4850"
       inkscape:collect="always" />
    <linearGradient
       y2="502.34891"
       x2="480.07483"
       y1="443.00705"
       x1="480.07483"
       gradientUnits="userSpaceOnUse"
       id="linearGradient25704"
       xlink:href="#linearGradient4800"
       inkscape:collect="always" />
    <radialGradient
       r="7.1330748"
       fy="469.36499"
       fx="506.24673"
       cy="471.40497"
       cx="508.29752"
       gradientTransform="matrix(1,0,0,3.9254336,0,-1382.2662)"
       gradientUnits="userSpaceOnUse"
       id="radialGradient25702"
       xlink:href="#linearGradient4850"
       inkscape:collect="always" />
    <linearGradient
       y2="502.34891"
       x2="480.07483"
       y1="443.00705"
       x1="480.07483"
       gradientUnits="userSpaceOnUse"
       id="linearGradient25700"
       xlink:href="#linearGradient4800"
       inkscape:collect="always" />
    <linearGradient
       y2="445.16745"
       x2="726.91016"
       y1="388.45044"
       x1="726.91016"
       gradientTransform="matrix(0.3012701,0,0,1.0091871,209.77505,50.7501)"
       gradientUnits="userSpaceOnUse"
       id="linearGradient25698"
       xlink:href="#linearGradient3164"
       inkscape:collect="always" />
    <linearGradient
       y2="445.16745"
       x2="726.91016"
       y1="388.45044"
       x1="726.91016"
       gradientTransform="matrix(0.1680072,0,0,1.0091871,508.68297,50.7501)"
       gradientUnits="userSpaceOnUse"
       id="linearGradient25696"
       xlink:href="#linearGradient3164"
       inkscape:collect="always" />
    <linearGradient
       y2="445.16745"
       x2="726.91016"
       y1="388.45044"
       x1="726.91016"
       gradientTransform="matrix(0.2400412,0,0,1.0091871,-78.389613,-49.2499)"
       gradientUnits="userSpaceOnUse"
       id="linearGradient24956"
       xlink:href="#linearGradient3164"
       inkscape:collect="always" />
    <clipPath
       id="clipPath24952"
       clipPathUnits="userSpaceOnUse">
      <path
         sodipodi:nodetypes="ccscc"
         id="path24954"
         d="M 75.200062,372.5 L 145.76888,400 C 152.63003,400 158.20638,387.68 158.20638,372.5 C 158.20638,357.32 152.63003,345 145.76888,345 L 75.200062,372.5 z"
         style="opacity:1;fill:url(#linearGradient24956);fill-opacity:1;fill-rule:nonzero;stroke:none;stroke-width:6;stroke-linecap:butt;stroke-linejoin:miter;stroke-miterlimit:4;stroke-dasharray:36, 12;stroke-dashoffset:0;stroke-opacity:1" />
    </clipPath>
    <linearGradient
       id="linearGradient3164">
      <stop
         style="stop-color:#383838;stop-opacity:1"
         offset="0"
         id="stop3166" />
      <stop
         id="stop3172"
         offset="0.05754738"
         style="stop-color:#3b3b3b;stop-opacity:1" />
      <stop
         style="stop-color:#626463;stop-opacity:1"
         offset="0.07978155"
         id="stop3174" />
      <stop
         id="stop3176"
         offset="0.12359595"
         style="stop-color:#bfbfbf;stop-opacity:1" />
      <stop
         style="stop-color:#808080;stop-opacity:1"
         offset="0.18899058"
         id="stop3178" />
      <stop
         id="stop3180"
         offset="0.25765494"
         style="stop-color:#e0e0e0;stop-opacity:1" />
      <stop
         style="stop-color:#ececec;stop-opacity:1"
         offset="0.37405738"
         id="stop3182" />
      <stop
         id="stop3184"
         offset="0.52577293"
         style="stop-color:#828282;stop-opacity:1" />
      <stop
         style="stop-color:#818181;stop-opacity:1"
         offset="0.57285708"
         id="stop3186" />
      <stop
         id="stop3188"
         offset="0.67356479"
         style="stop-color:#acacac;stop-opacity:1" />
      <stop
         style="stop-color:#bcbcbc;stop-opacity:1"
         offset="0.73765153"
         id="stop3190" />
      <stop
         id="stop3192"
         offset="0.86451715"
         style="stop-color:#505050;stop-opacity:1" />
      <stop
         style="stop-color:#333333;stop-opacity:1"
         offset="0.90767759"
         id="stop3194" />
      <stop
         id="stop3196"
         offset="0.96260905"
         style="stop-color:#7a7a7c;stop-opacity:1" />
      <stop
         style="stop-color:#c9c6c1;stop-opacity:1"
         offset="1"
         id="stop3168" />
    </linearGradient>
    <linearGradient
       id="linearGradient4800">
      <stop
         id="stop4802"
         offset="0"
         style="stop-color:#383838;stop-opacity:1" />
      <stop
         style="stop-color:#3b3b3b;stop-opacity:1"
         offset="0.05754738"
         id="stop4804" />
      <stop
         id="stop4806"
         offset="0.07978155"
         style="stop-color:#626463;stop-opacity:1" />
      <stop
         style="stop-color:#bfbfbf;stop-opacity:1"
         offset="0.12359595"
         id="stop4808" />
      <stop
         id="stop4810"
         offset="0.18899058"
         style="stop-color:#808080;stop-opacity:1" />
      <stop
         style="stop-color:#e0e0e0;stop-opacity:1"
         offset="0.25765494"
         id="stop4812" />
      <stop
         id="stop4814"
         offset="0.37405738"
         style="stop-color:#ececec;stop-opacity:1" />
      <stop
         style="stop-color:#828282;stop-opacity:1"
         offset="0.52577293"
         id="stop4816" />
      <stop
         id="stop4818"
         offset="0.57285708"
         style="stop-color:#818181;stop-opacity:1" />
      <stop
         style="stop-color:#acacac;stop-opacity:1"
         offset="0.67356479"
         id="stop4820" />
      <stop
         id="stop4822"
         offset="0.73765153"
         style="stop-color:#bcbcbc;stop-opacity:1" />
      <stop
         style="stop-color:#505050;stop-opacity:1"
         offset="0.86451715"
         id="stop4824" />
      <stop
         id="stop4826"
         offset="0.90767759"
         style="stop-color:#333333;stop-opacity:1" />
      <stop
         style="stop-color:#7a7a7c;stop-opacity:1"
         offset="0.96260905"
         id="stop4828" />
      <stop
         id="stop4830"
         offset="1"
         style="stop-color:#c9c6c1;stop-opacity:1" />
    </linearGradient>
    <linearGradient
       inkscape:collect="always"
       id="linearGradient4850">
      <stop
         style="stop-color:#ffffff;stop-opacity:1;"
         offset="0"
         id="stop4852" />
      <stop
         style="stop-color:#ffffff;stop-opacity:0;"
         offset="1"
         id="stop4854" />
    </linearGradient>
  </defs>
  <sodipodi:namedview
     id="base"
     pagecolor="#ffffff"
     bordercolor="#666666"
     borderopacity="1.0"
     inkscape:pageopacity="0.0"
     inkscape:pageshadow="2"
     inkscape:zoom="1.4142136"
     inkscape:cx="11.719468"
     inkscape:cy="151.53998"
     inkscape:document-units="px"
     inkscape:current-layer="layer1"
     showgrid="false"
     inkscape:window-width="1680"
     inkscape:window-height="1001"
     inkscape:window-x="0"
     inkscape:window-y="20"
     inkscape:window-maximized="1" />
  <metadata
     id="metadata7">
    <rdf:RDF>
      <cc:Work
         rdf:about="">
        <dc:format>image/svg+xml</dc:format>
        <dc:type
           rdf:resource="http://purl.org/dc/dcmitype/StillImage" />
      </cc:Work>
    </rdf:RDF>
  </metadata>
  <g
     inkscape:label="Layer 1"
     inkscape:groupmode="layer"
     id="layer1"
     transform="translate(0,-796.36209)">
    <g
       transform="translate(0,796.36209)"
       style="font-size:40px;font-style:normal;font-variant:normal;font-weight:500;font-stretch:normal;line-height:125%;letter-spacing:0px;word-spacing:0px;fill:#000000;fill-opacity:1;stroke:none;font-family:Sans;-inkscape-font-specification:Charter"
       id="text3080" />
    <g
       id="g3104"
       transform="translate(2.051949,4.8113453)">
      <g
         style="font-size:34.78716278px;font-style:normal;font-variant:normal;font-weight:normal;font-stretch:normal;line-height:125%;letter-spacing:0px;word-spacing:0px;writing-mode:tb-rl;fill:#000000;fill-opacity:1;stroke:none;font-family:Cantarell;-inkscape-font-specification:Sans"
         id="text3092">
        <path
           d="m 93.626054,809.17175 0,2.95555 c -0.883283,-0.45294 -1.800521,-0.79266 -2.751719,-1.01915 -0.951223,-0.22646 -1.936406,-0.3397 -2.95555,-0.33972 -1.551389,2e-5 -2.717754,0.23782 -3.4991,0.71341 -0.770033,0.47562 -1.155047,1.18903 -1.155042,2.14023 -5e-6,0.72474 0.277431,1.2966 0.83231,1.71557 0.554867,0.40768 1.670274,0.79835 3.346226,1.17203 l 1.070113,0.2378 c 2.219481,0.47562 3.793508,1.14939 4.722085,2.02133 0.939872,0.86063 1.409815,2.06663 1.409832,3.618 -1.7e-5,1.76654 -0.702101,3.16504 -2.106254,4.19552 -1.392859,1.03048 -3.312265,1.54572 -5.758227,1.54572 -1.019163,0 -2.083612,-0.10192 -3.193353,-0.30575 -1.098427,-0.1925 -2.25913,-0.48693 -3.482113,-0.88326 l 0,-3.22733 c 1.155039,0.60017 2.293095,1.05313 3.41417,1.35887 1.121064,0.29443 2.230809,0.44164 3.32924,0.44164 1.472103,0 2.604496,-0.24913 3.397184,-0.74738 0.792663,-0.50958 1.189001,-1.22298 1.189014,-2.14023 -1.3e-5,-0.84929 -0.288774,-1.50041 -0.866282,-1.95338 -0.566209,-0.45295 -1.817504,-0.88892 -3.753888,-1.30791 l -1.087099,-0.25479 c -1.9364,-0.40766 -3.334906,-1.03047 -4.195522,-1.86845 -0.860622,-0.84929 -1.290932,-2.00999 -1.29093,-3.48212 -2e-6,-1.78917 0.634139,-3.17069 1.902423,-4.14456 1.268277,-0.97384 3.068783,-1.46077 5.401523,-1.46079 1.155032,2e-5 2.242129,0.085 3.261296,0.25479 1.019142,0.16988 1.959028,0.42466 2.819663,0.76436"
           style="font-family:Sans;-inkscape-font-specification:Sans"
           id="path3114" />
        <path
           d="m 82.551234,865.27624 0,10.08964 -3.142395,0 0,-26.26023 3.142395,0 0,2.8876 c 0.656782,-1.13238 1.48343,-1.97035 2.479945,-2.51391 1.007821,-0.55486 2.208158,-0.83229 3.601015,-0.83231 2.31007,2e-5 4.184181,0.91725 5.622339,2.75171 1.449445,1.8345 2.174177,4.2465 2.174197,7.23601 -2e-5,2.98952 -0.724752,5.40152 -2.174197,7.236 -1.438158,1.83448 -3.312269,2.75172 -5.622339,2.75172 -1.392857,0 -2.593194,-0.27178 -3.601015,-0.81533 -0.996515,-0.55487 -1.823163,-1.3985 -2.479945,-2.5309 m 10.633186,-6.64149 c -1.7e-5,-2.29875 -0.475622,-4.09926 -1.426817,-5.40153 -0.939902,-1.31356 -2.236493,-1.97035 -3.889776,-1.97036 -1.653306,10e-6 -2.955558,0.6568 -3.906761,1.97036 -0.939895,1.30227 -1.409838,3.10278 -1.409832,5.40153 -6e-6,2.29876 0.469937,4.10493 1.409832,5.4185 0.951203,1.30226 2.253455,1.95339 3.906761,1.95339 1.653283,0 2.949874,-0.65113 3.889776,-1.95339 0.951195,-1.31357 1.4268,-3.11974 1.426817,-5.4185"
           style="font-family:Sans;-inkscape-font-specification:Sans"
           id="path3116" />
        <path
           d="m 94.424392,892.52165 c -0.351056,-0.20381 -0.73607,-0.35102 -1.155042,-0.44163 -0.407675,-0.1019 -0.860632,-0.15286 -1.358874,-0.15287 -1.766545,10e-6 -3.125418,0.57753 -4.07662,1.73256 -0.939895,1.14373 -1.409838,2.79137 -1.409832,4.9429 l 0,10.0217 -3.142395,0 0,-19.02423 3.142395,0 0,2.95555 c 0.656782,-1.15503 1.511739,-2.00999 2.564874,-2.56488 1.053117,-0.56618 2.332722,-0.84927 3.838818,-0.84929 0.215142,2e-5 0.452945,0.017 0.713408,0.0509 0.260438,0.0227 0.549198,0.0623 0.866282,0.11891 l 0.01699,3.21033"
           style="font-family:Sans;-inkscape-font-specification:Sans"
           id="path3118" />
        <path
           d="m 85.744587,930.09451 3.125409,0 0,19.02423 -3.125409,0 0,-19.02423 m 0,-7.40586 3.125409,0 0,3.95772 -3.125409,0 0,-3.95772"
           style="font-family:Sans;-inkscape-font-specification:Sans"
           id="path3120" />
        <path
           d="m 86.831686,965.18742 0,5.40152 6.437664,0 0,2.42899 -6.437664,0 0,10.32744 c -6e-6,1.55139 0.209487,2.54789 0.628479,2.98952 0.430303,0.44164 1.296584,0.66246 2.598846,0.66245 l 3.210339,0 0,2.61583 -3.210339,0 c -2.412008,0 -4.076626,-0.44729 -4.99386,-1.34188 -0.917244,-0.90592 -1.375863,-2.54789 -1.37586,-4.92592 l 0,-10.32744 -2.293099,0 0,-2.42899 2.293099,0 0,-5.40152 3.142395,0"
           style="font-family:Sans;-inkscape-font-specification:Sans"
           id="path3122" />
        <path
           d="m 96.13997,1019.8141 0,1.5288 -14.370087,0 c 0.135882,2.1515 0.781346,3.7935 1.936394,4.9259 1.166359,1.1211 2.785681,1.6816 4.857973,1.6816 1.200325,0 2.361029,-0.1472 3.482114,-0.4416 1.132378,-0.2945 2.253447,-0.7361 3.363212,-1.3249 l 0,2.9555 c -1.121089,0.4756 -2.270468,0.838 -3.448142,1.0871 -1.177704,0.2491 -2.37238,0.3737 -3.584029,0.3737 -3.034826,0 -5.441162,-0.8833 -7.219016,-2.6498 -1.766538,-1.7665 -2.649805,-4.1559 -2.649803,-7.1681 -2e-6,-3.114 0.837969,-5.5827 2.513916,-7.4058 1.687262,-1.8345 3.957711,-2.7517 6.811354,-2.7517 2.559198,0 4.58052,0.8266 6.063973,2.4799 1.494742,1.642 2.242122,3.8785 2.242141,6.7094 m -3.125409,-0.9172 c -0.02266,-1.7099 -0.503931,-3.0744 -1.443803,-4.0936 -0.928578,-1.0191 -2.162887,-1.5287 -3.70293,-1.5287 -1.743898,0 -3.142404,0.4926 -4.195523,1.4777 -1.041809,0.9852 -1.641977,2.3724 -1.800507,4.1616 l 11.142763,-0.017"
           style="font-family:Sans;-inkscape-font-specification:Sans"
           id="path3124" />
      </g>
      <g
         style="font-size:34.78716278px;font-style:normal;font-variant:normal;font-weight:normal;font-stretch:normal;line-height:125%;letter-spacing:0px;word-spacing:0px;writing-mode:lr-tb;fill:#ff0000;fill-opacity:1;stroke:none;font-family:Cantarell;-inkscape-font-specification:Sans"
         id="text3096">
        <path
           d="m 50.844808,939.57603 c -2.52525,1e-5 -4.274798,0.28877 -5.248649,0.86628 -0.973865,0.57753 -1.460795,1.56271 -1.460789,2.95555 -6e-6,1.10975 0.36236,1.99302 1.087099,2.6498 0.736049,0.64547 1.732555,0.9682 2.989521,0.9682 1.732553,0 3.119735,-0.61149 4.161551,-1.83448 1.053112,-1.23431 1.579675,-2.87061 1.57969,-4.90893 l 0,-0.69642 -3.108423,0 m 6.233832,-1.29093 0,10.854 -3.125409,0 0,-2.88761 c -0.713423,1.15505 -1.602352,2.01 -2.666789,2.56488 -1.064463,0.54355 -2.366715,0.81532 -3.906762,0.81532 -1.947725,0 -3.499104,-0.54355 -4.654142,-1.63065 -1.143721,-1.09842 -1.71558,-2.56487 -1.715577,-4.39935 -3e-6,-2.14022 0.713405,-3.75388 2.140225,-4.84099 1.438136,-1.08708 3.57836,-1.63063 6.420678,-1.63065 l 4.382367,0 0,-0.30574 c -1.5e-5,-1.43813 -0.47562,-2.54788 -1.426817,-3.32924 -0.9399,-0.79266 -2.264801,-1.189 -3.974705,-1.18902 -1.087108,2e-5 -2.145896,0.13025 -3.176367,0.39068 -1.030485,0.26047 -2.021329,0.65114 -2.972536,1.17203 l 0,-2.88761 c 1.143714,-0.44161 2.253459,-0.77001 3.32924,-0.98518 1.075767,-0.22646 2.123231,-0.3397 3.142395,-0.33972 2.751706,2e-5 4.807001,0.71343 6.165889,2.14023 1.358856,1.42683 2.038292,3.5897 2.03831,6.48862"
           style="fill:#ff0000;font-family:Sans;-inkscape-font-specification:Sans"
           id="path3127" />
        <path
           d="m 79.34718,937.65662 0,11.48248 -3.125409,0 0,-11.38057 c -1.6e-5,-1.80049 -0.351058,-3.14804 -1.053127,-4.04265 -0.702099,-0.89457 -1.755225,-1.34187 -3.159381,-1.34188 -1.687278,10e-6 -3.01784,0.5379 -3.991691,1.61366 -0.973866,1.07579 -1.460795,2.54224 -1.460789,4.39935 l 0,10.75209 -3.142395,0 0,-19.02423 3.142395,0 0,2.95555 c 0.747373,-1.1437 1.624978,-1.99866 2.632817,-2.56487 1.019146,-0.56618 2.191173,-0.84928 3.516086,-0.8493 2.185507,2e-5 3.838801,0.67946 4.959888,2.03831 1.121052,1.34757 1.681587,3.33492 1.681606,5.96206"
           style="fill:#ff0000;font-family:Sans;-inkscape-font-specification:Sans"
           id="path3129" />
        <path
           d="m 85.614983,930.11487 3.125409,0 0,19.02423 -3.125409,0 0,-19.02423 m 0,-7.40586 3.125409,0 0,3.95772 -3.125409,0 0,-3.95772"
           style="fill:#ff0000;font-family:Sans;-inkscape-font-specification:Sans"
           id="path3131" />
        <path
           d="m 110.07471,933.76684 c 0.78133,-1.40415 1.71556,-2.44029 2.80267,-3.10842 1.08708,-0.66809 2.36669,-1.00215 3.83882,-1.00217 1.98167,2e-5 3.5104,0.69644 4.5862,2.08927 1.07574,1.38154 1.61363,3.3519 1.61366,5.9111 l 0,11.48248 -3.14239,0 0,-11.38057 c -3e-5,-1.82314 -0.32276,-3.17635 -0.9682,-4.05963 -0.64549,-0.88325 -1.63067,-1.32489 -2.95555,-1.3249 -1.61935,10e-6 -2.89895,0.5379 -3.83882,1.61366 -0.9399,1.07579 -1.40985,2.54224 -1.40983,4.39935 l 0,10.75209 -3.14239,0 0,-11.38057 c -2e-5,-1.83446 -0.32275,-3.18767 -0.9682,-4.05963 -0.64548,-0.88325 -1.64199,-1.32489 -2.98952,-1.3249 -1.59669,10e-6 -2.86497,0.54356 -3.80485,1.63065 -0.939894,1.07578 -1.409837,2.53657 -1.409831,4.38236 l 0,10.75209 -3.142395,0 0,-19.02423 3.142395,0 0,2.95555 c 0.713402,-1.16635 1.568359,-2.02697 2.564871,-2.58186 0.9965,-0.55485 2.17985,-0.83229 3.55006,-0.83231 1.38151,2e-5 2.55353,0.35106 3.51609,1.05313 0.97384,0.7021 1.69291,1.72125 2.15721,3.05746"
           style="fill:#ff0000;font-family:Sans;-inkscape-font-specification:Sans"
           id="path3133" />
        <path
           d="m 137.81272,939.57603 c -2.52525,1e-5 -4.2748,0.28877 -5.24865,0.86628 -0.97387,0.57753 -1.46079,1.56271 -1.46079,2.95555 0,1.10975 0.36236,1.99302 1.0871,2.6498 0.73605,0.64547 1.73256,0.9682 2.98952,0.9682 1.73255,0 3.11974,-0.61149 4.16155,-1.83448 1.05311,-1.23431 1.57968,-2.87061 1.57969,-4.90893 l 0,-0.69642 -3.10842,0 m 6.23383,-1.29093 0,10.854 -3.12541,0 0,-2.88761 c -0.71342,1.15505 -1.60235,2.01 -2.66679,2.56488 -1.06446,0.54355 -2.36671,0.81532 -3.90676,0.81532 -1.94772,0 -3.4991,-0.54355 -4.65414,-1.63065 -1.14372,-1.09842 -1.71558,-2.56487 -1.71558,-4.39935 0,-2.14022 0.71341,-3.75388 2.14023,-4.84099 1.43813,-1.08708 3.57836,-1.63063 6.42067,-1.63065 l 4.38237,0 0,-0.30574 c -1e-5,-1.43813 -0.47562,-2.54788 -1.42682,-3.32924 -0.9399,-0.79266 -2.2648,-1.189 -3.9747,-1.18902 -1.08711,2e-5 -2.1459,0.13025 -3.17637,0.39068 -1.03048,0.26047 -2.02133,0.65114 -2.97253,1.17203 l 0,-2.88761 c 1.14371,-0.44161 2.25346,-0.77001 3.32924,-0.98518 1.07576,-0.22646 2.12323,-0.3397 3.14239,-0.33972 2.75171,2e-5 4.807,0.71343 6.16589,2.14023 1.35886,1.42683 2.03829,3.5897 2.03831,6.48862"
           style="fill:#ff0000;font-family:Sans;-inkscape-font-specification:Sans"
           id="path3135" />
        <path
           d="m 153.59264,924.71335 0,5.40152 6.43766,0 0,2.42899 -6.43766,0 0,10.32743 c -10e-6,1.55139 0.20948,2.5479 0.62847,2.98953 0.43031,0.44163 1.29659,0.66245 2.59885,0.66245 l 3.21034,0 0,2.61583 -3.21034,0 c -2.41201,0 -4.07663,-0.4473 -4.99386,-1.34189 -0.91724,-0.90591 -1.37586,-2.54788 -1.37586,-4.92592 l 0,-10.32743 -2.2931,0 0,-2.42899 2.2931,0 0,-5.40152 3.1424,0"
           style="fill:#ff0000;font-family:Sans;-inkscape-font-specification:Sans"
           id="path3137" />
        <path
           d="m 164.15788,930.11487 3.1254,0 0,19.02423 -3.1254,0 0,-19.02423 m 0,-7.40586 3.1254,0 0,3.95772 -3.1254,0 0,-3.95772"
           style="fill:#ff0000;font-family:Sans;-inkscape-font-specification:Sans"
           id="path3139" />
        <path
           d="m 181.17777,932.30605 c -1.67596,2e-5 -3.00086,0.65681 -3.97471,1.97037 -0.97386,1.30227 -1.46079,3.09145 -1.46079,5.36755 0,2.27612 0.48126,4.07096 1.44381,5.38454 0.97385,1.30225 2.30441,1.95338 3.99169,1.95338 1.6646,0 2.98384,-0.65679 3.95772,-1.97037 0.97384,-1.31357 1.46077,-3.10275 1.46079,-5.36755 -2e-5,-2.25345 -0.48695,-4.03697 -1.46079,-5.35056 -0.97388,-1.32489 -2.29312,-1.98734 -3.95772,-1.98736 m 0,-2.6498 c 2.71773,2e-5 4.85229,0.88329 6.40369,2.6498 1.55136,1.76655 2.32705,4.21252 2.32707,7.33792 -2e-5,3.11409 -0.77571,5.56006 -2.32707,7.33792 -1.5514,1.76653 -3.68596,2.6498 -6.40369,2.6498 -2.72908,0 -4.86931,-0.88327 -6.42068,-2.6498 -1.54006,-1.77786 -2.31009,-4.22383 -2.31009,-7.33792 0,-3.1254 0.77003,-5.57137 2.31009,-7.33792 1.55137,-1.76651 3.6916,-2.64978 6.42068,-2.6498"
           style="fill:#ff0000;font-family:Sans;-inkscape-font-specification:Sans"
           id="path3141" />
        <path
           d="m 210.88614,937.65662 0,11.48248 -3.12541,0 0,-11.38057 c -1e-5,-1.80049 -0.35106,-3.14804 -1.05312,-4.04265 -0.7021,-0.89457 -1.75523,-1.34187 -3.15939,-1.34188 -1.68727,10e-6 -3.01784,0.5379 -3.99169,1.61366 -0.97386,1.07579 -1.46079,2.54224 -1.46079,4.39935 l 0,10.75209 -3.14239,0 0,-19.02423 3.14239,0 0,2.95555 c 0.74738,-1.1437 1.62498,-1.99866 2.63282,-2.56487 1.01915,-0.56618 2.19117,-0.84928 3.51609,-0.8493 2.1855,2e-5 3.8388,0.67946 4.95989,2.03831 1.12105,1.34757 1.68158,3.33492 1.6816,5.96206"
           style="fill:#ff0000;font-family:Sans;-inkscape-font-specification:Sans"
           id="path3143" />
      </g>
      <g
         style="font-size:34.78716278px;font-style:normal;font-variant:normal;font-weight:normal;font-stretch:normal;line-height:125%;letter-spacing:0px;word-spacing:0px;writing-mode:lr-tb;fill:#ff0000;fill-opacity:1;stroke:none;font-family:Cantarell;-inkscape-font-specification:Sans"
         id="text3100">
        <path
           d="m 95.989712,1020.1628 0,1.5288 -14.370088,0 c 0.135882,2.1515 0.781347,3.7935 1.936395,4.9259 1.166358,1.1211 2.785681,1.6816 4.857973,1.6816 1.200325,0 2.361029,-0.1472 3.482114,-0.4416 1.132378,-0.2945 2.253447,-0.7361 3.363212,-1.3249 l 0,2.9555 c -1.121089,0.4756 -2.270468,0.838 -3.448142,1.0871 -1.177705,0.2491 -2.37238,0.3737 -3.584029,0.3737 -3.034826,0 -5.441162,-0.8833 -7.219016,-2.6498 -1.766538,-1.7665 -2.649805,-4.1559 -2.649803,-7.1681 -2e-6,-3.114 0.837969,-5.5827 2.513916,-7.4058 1.687262,-1.8345 3.957711,-2.7517 6.811354,-2.7518 2.559198,10e-5 4.58052,0.8267 6.063973,2.48 1.494742,1.642 2.242122,3.8785 2.242141,6.7094 m -3.125409,-0.9172 c -0.02266,-1.7099 -0.503931,-3.0744 -1.443803,-4.0936 -0.928578,-1.0192 -2.162887,-1.5287 -3.70293,-1.5287 -1.743898,0 -3.142404,0.4926 -4.195523,1.4777 -1.041809,0.9852 -1.641977,2.3724 -1.800507,4.1616 l 11.142763,-0.017"
           style="fill:#ff0000;font-family:Sans;-inkscape-font-specification:Sans"
           id="path3146" />
        <path
           d="m 113.63808,1014.3197 0,-10.2935 3.12541,0 0,26.4301 -3.12541,0 0,-2.8536 c -0.6568,1.1324 -1.48911,1.976 -2.49693,2.5309 -0.99652,0.5435 -2.19685,0.8153 -3.60101,0.8153 -2.29877,0 -4.17288,-0.9172 -5.62234,-2.7517 -1.43815,-1.8345 -2.157216,-4.2465 -2.157214,-7.236 -2e-6,-2.9895 0.719064,-5.4015 2.157214,-7.236 1.44946,-1.8345 3.32357,-2.7517 5.62234,-2.7518 1.40416,10e-5 2.60449,0.2775 3.60101,0.8324 1.00782,0.5435 1.84013,1.3815 2.49693,2.5139 m -10.65017,6.6415 c 0,2.2987 0.46994,4.1049 1.40983,5.4185 0.95121,1.3022 2.25346,1.9534 3.90676,1.9534 1.65329,0 2.95554,-0.6512 3.90676,-1.9534 0.9512,-1.3136 1.42681,-3.1198 1.42682,-5.4185 -1e-5,-2.2988 -0.47562,-4.0993 -1.42682,-5.4016 -0.95122,-1.3135 -2.25347,-1.9703 -3.90676,-1.9703 -1.6533,0 -2.95555,0.6568 -3.90676,1.9703 -0.93989,1.3023 -1.40983,3.1028 -1.40983,5.4016"
           style="fill:#ff0000;font-family:Sans;-inkscape-font-specification:Sans"
           id="path3148" />
        <path
           d="m 123.20116,1011.4321 3.12541,0 0,19.0242 -3.12541,0 0,-19.0242 m 0,-7.4059 3.12541,0 0,3.9577 -3.12541,0 0,-3.9577"
           style="fill:#ff0000;font-family:Sans;-inkscape-font-specification:Sans"
           id="path3150" />
        <path
           d="m 135.9406,1006.0305 0,5.4016 6.43766,0 0,2.429 -6.43766,0 0,10.3274 c -1e-5,1.5514 0.20948,2.5479 0.62848,2.9895 0.4303,0.4417 1.29658,0.6625 2.59884,0.6625 l 3.21034,0 0,2.6158 -3.21034,0 c -2.41201,0 -4.07662,-0.4473 -4.99386,-1.3419 -0.91724,-0.9059 -1.37586,-2.5479 -1.37586,-4.9259 l 0,-10.3274 -2.2931,0 0,-2.429 2.2931,0 0,-5.4016 3.1424,0"
           style="fill:#ff0000;font-family:Sans;-inkscape-font-specification:Sans"
           id="path3152" />
        <path
           d="m 153.87773,1013.6233 c -1.67596,0 -3.00086,0.6568 -3.97471,1.9703 -0.97386,1.3023 -1.46079,3.0915 -1.46079,5.3676 0,2.2761 0.48126,4.0709 1.4438,5.3845 0.97386,1.3023 2.30442,1.9534 3.9917,1.9534 1.6646,0 2.98384,-0.6568 3.95771,-1.9704 0.97385,-1.3136 1.46078,-3.1027 1.46079,-5.3675 -1e-5,-2.2535 -0.48694,-4.037 -1.46079,-5.3506 -0.97387,-1.3249 -2.29311,-1.9873 -3.95771,-1.9873 m 0,-2.6499 c 2.71773,10e-5 4.85229,0.8833 6.40369,2.6499 1.55136,1.7665 2.32705,4.2125 2.32707,7.3379 -2e-5,3.1141 -0.77571,5.56 -2.32707,7.3379 -1.5514,1.7665 -3.68596,2.6498 -6.40369,2.6498 -2.72908,0 -4.86931,-0.8833 -6.42068,-2.6498 -1.54006,-1.7779 -2.31009,-4.2238 -2.31009,-7.3379 0,-3.1254 0.77003,-5.5714 2.31009,-7.3379 1.55137,-1.7666 3.6916,-2.6498 6.42068,-2.6499"
           style="fill:#ff0000;font-family:Sans;-inkscape-font-specification:Sans"
           id="path3154" />
        <path
           d="m 178.79607,1014.3536 c -0.35106,-0.2038 -0.73607,-0.351 -1.15504,-0.4416 -0.40768,-0.1019 -0.86063,-0.1528 -1.35887,-0.1529 -1.76655,10e-5 -3.12542,0.5776 -4.07663,1.7326 -0.93989,1.1437 -1.40983,2.7914 -1.40983,4.9429 l 0,10.0217 -3.14239,0 0,-19.0242 3.14239,0 0,2.9555 c 0.65678,-1.155 1.51174,-2.01 2.56488,-2.5649 1.05311,-0.5661 2.33272,-0.8492 3.83881,-0.8493 0.21515,10e-5 0.45295,0.017 0.71341,0.051 0.26044,0.023 0.5492,0.062 0.86629,0.1189 l 0.017,3.2103"
           style="fill:#ff0000;font-family:Sans;-inkscape-font-specification:Sans"
           id="path3156" />
      </g>
    </g>
  </g>
</svg>
